<?xml version="1.0" encoding="UTF-8" standalone="no"?>
<!DOCTYPE svg PUBLIC "-//W3C//DTD SVG 1.1//EN" "http://www.w3.org/Graphics/SVG/1.1/DTD/svg11.dtd">
<svg width="100%" height="100%" viewBox="0 0 142 22" version="1.1" xmlns="http://www.w3.org/2000/svg" xmlns:xlink="http://www.w3.org/1999/xlink" xml:space="preserve" xmlns:serif="http://www.serif.com/" style="fill-rule:evenodd;clip-rule:evenodd;stroke-linejoin:round;stroke-miterlimit:2;">
    <g transform="matrix(1,0,0,1,-0.0122,-80.6105)">
        <g transform="matrix(1,0,0,1,-36.5878,-404.495)">
            <path d="M143.7,504.6C143.7,505.8 142.8,506.7 141.6,506.7C140.4,506.7 139.5,505.8 139.5,504.6C139.5,503.4 140.4,502.5 141.6,502.5C142.8,502.5 143.7,503.4 143.7,504.6" style="fill:rgb(0,92,166);fill-rule:nonzero;"/>
            <path d="M49.5,494.2C49.1,494.1 48.7,494.1 48.2,494.1L42.6,494.1C41.3,494 40.6,493.4 40.4,492.7C40,491.9 40.1,491 40.5,490.2C41,489.5 41.8,488.9 42.7,488.8C44.2,488.8 45.9,488.7 47.4,488.7C48.6,488.7 49.6,488.8 50.8,488.8C52.2,488.8 53.2,488.2 53.6,486.9C53.7,486.4 53.7,486 53.5,485.7C53.3,485.5 52.9,485.3 52.4,485.3L42.4,485.3C39.1,485.4 36.6,488.1 36.6,491.4C36.6,494.4 38.5,496.6 41.3,497.1C41.7,497.2 42.1,497.2 42.5,497.2L48.1,497.2C49,497.3 49.6,497.6 50,498C50.1,498.2 50.2,498.3 50.3,498.5C50.7,499.4 50.7,500.3 50.2,501C49.7,501.7 48.9,502.3 48,502.4C46.5,502.4 44.8,502.5 43.3,502.5C42.1,502.5 41.1,502.4 39.9,502.4C38.5,502.4 37.5,503 37.1,504.3C37,504.8 37,505.2 37.2,505.5C37.4,505.7 37.8,505.9 38.3,505.9L48.3,505.9C51.6,505.8 54.1,503.1 54.1,499.8C54,496.9 52.2,494.7 49.5,494.2" style="fill:rgb(0,92,166);fill-rule:nonzero;"/>
            <path d="M177.9,485.4L173.4,487.9L175.6,488.4L176.7,490.4L177.9,485.4Z" style="fill:rgb(0,92,166);fill-rule:nonzero;"/>
            <path d="M158.5,494.6L158.5,486.6C158.5,485.3 157.9,484.9 156.7,485.2C155.3,485.6 154.4,486.6 154.4,488.2L154.4,498.7L144,487.1C143.2,485.9 142.4,485.4 141.6,485.4C141.5,485.4 141.3,485.4 141.1,485.5C140.1,485.9 139.5,486.5 139.5,487.5L139.5,499C139.5,500.3 140.1,500.7 141.3,500.4C142.1,500.2 142.7,499.8 143.1,499.2C143.5,498.8 143.6,498.2 143.6,497.8L143.6,493C144.7,494.3 148.2,498.2 154.2,505C154.9,506 155.7,506.5 156.4,506.5L156.8,506.4C157.8,506 158.4,505.3 158.4,504.4L158.4,494.6L158.5,494.6Z" style="fill:rgb(240,156,68);fill-rule:nonzero;"/>
            <path d="M77,487.5C77,486.5 76.6,486 75.7,485.6C74.8,485.3 73.9,485.3 73.2,485.7C72.5,486 72,486.6 71.7,487.5L69.9,492L67.1,499.2L64.3,492L62.5,487.5C62.2,486.7 61.7,486.1 61,485.7C60.2,485.3 59.3,485.3 58.5,485.6C57.6,485.9 57.2,486.5 57.2,487.5C57.2,492.7 57.3,498.7 57.2,504.5C57.2,505.1 57.4,505.5 57.8,505.7C58.2,506 58.7,506 59.2,505.8C60.2,505.3 60.7,504.6 60.7,503.5L60.7,491.7C60.7,491.7 60.9,492.7 65.8,504.6C66.1,505.3 66.5,505.8 67.2,505.8C68,505.8 68.4,505.2 68.6,504.6C73.5,492.7 73.7,491.7 73.7,491.7L73.7,503.5C73.7,504.6 74.2,505.4 75.2,505.8C75.7,506 76.2,506 76.6,505.7C77,505.4 77.2,505 77.2,504.5C77,498.7 77,492.8 77,487.5" style="fill:rgb(0,92,166);fill-rule:nonzero;"/>
            <path d="M133.9,485.5L121.2,485.5C120.3,485.5 119.6,486.2 119.6,487.1C119.6,488 120.3,488.8 121.2,488.8L125.8,488.8L125.8,504.9C125.8,505.9 126.3,506.3 127.3,506C128.4,505.7 129.1,504.9 129.1,503.6L129.1,488.8L133.8,488.8C134.7,488.8 135.4,488.1 135.4,487.1C135.5,486.3 134.8,485.5 133.9,485.5" style="fill:rgb(0,92,166);fill-rule:nonzero;"/>
            <path d="M177.4,502.1L175.9,500.2L172.6,495.9L174.7,493.1C175,492.7 175.2,492.3 175.2,491.8C175.2,490.7 174.3,489.7 173.1,489.7C172.5,489.7 171.9,490 171.5,490.4L170,492.4L165,485.9C164.3,485.2 163.6,485.4 163,486.3C162.2,487.4 162.1,488.6 162.7,489.7L167.4,495.8L166.1,497.5L164,500.2L162.5,502.1C161.7,503.3 161.8,504.6 162.7,505.7C163.3,506.6 164,506.7 164.7,506.1L170,499.2L175.3,506.1C176,506.7 176.6,506.5 177.3,505.7C178,504.5 178.1,503.3 177.4,502.1" style="fill:rgb(240,156,68);fill-rule:nonzero;"/>
            <path d="M113.3,497.6C113.2,497.4 113.3,497.1 113.5,497C115.4,496 116.7,494 116.7,491.8C116.7,488.4 114,485.5 110.7,485.5L104.4,485.6C103.6,485.7 102.9,486.5 102.9,487.3L102.9,505.4C102.9,506.4 103.4,506.7 104.3,506.4C105.4,506.1 106.1,505.3 106.1,504.1L106.1,489.2C106.1,489 106.3,488.8 106.6,488.8L110.7,488.8C112.1,488.8 113.5,490.2 113.5,491.8C113.5,493.2 112.1,494.5 110.5,494.5L108.9,494.5C108.1,494.6 107.3,495.1 107.3,496.3L107.3,497.2C107.3,497.5 107.5,497.7 107.8,497.7L109.3,497.7C109.5,497.7 109.6,497.8 109.7,498L113.6,505.4C113.9,506 114,506.3 114.6,506.3C114.9,506.3 115.1,506.2 115.4,506.1C116.8,505.5 116.4,503.7 116,502.9L113.3,497.6Z" style="fill:rgb(0,92,166);fill-rule:nonzero;"/>
            <path d="M80.5,503.1C80,504.2 80.3,505.3 81.1,506C81.8,506.6 82.4,506.5 82.8,505.6C85,501.2 88.2,494.1 88.2,494.1L89.5,491.2L90.9,494.1L90.9,494.2C90.9,494.2 91.6,495.6 96.6,505.6C97,506.5 97.6,506.6 98.4,505.9C99.3,505.1 99.5,504.1 99,503L92.5,489.8L91,486.8C90.7,486.3 90.2,485.9 89.5,485.9C88.9,485.9 88.3,486.3 88.1,486.9L86.8,489.8L80.5,503.1Z" style="fill:rgb(0,92,166);fill-rule:nonzero;"/>
        </g>
    </g>
</svg>
